<?xml version="1.0" encoding="UTF-8" standalone="no"?>
<!DOCTYPE svg PUBLIC "-//W3C//DTD SVG 1.1//EN" "http://www.w3.org/Graphics/SVG/1.1/DTD/svg11.dtd">
<svg version="1.1" xmlns="http://www.w3.org/2000/svg" xmlns:xlink="http://www.w3.org/1999/xlink" preserveAspectRatio="xMidYMid meet" viewBox="0 0 640 640" width="640" height="640"><defs><path d="M475.07 320C475.07 402.79 406.84 470 322.8 470C238.77 470 170.54 402.79 170.54 320C170.54 237.21 238.77 170 322.8 170C406.84 170 475.07 237.21 475.07 320Z" id="b1pFDyz2ze"></path><path d="M235.27 441.74L177.58 459.35L197.77 404.4" id="gHdsEu8BS"></path><path d="M462.05 319.89C462.05 394.66 399.66 455.37 322.8 455.37C245.95 455.37 183.56 394.66 183.56 319.89C183.56 245.11 245.95 184.4 322.8 184.4C399.66 184.4 462.05 245.11 462.05 319.89Z" id="b4fqhMQtx"></path><path d="M264.74 317.82C258.11 317.82 252.73 325.82 252.73 335.68C252.73 345.54 258.11 353.53 264.74 353.53C270.61 353.53 297.2 353.53 323.59 353.53C349.45 353.53 375.11 353.53 380.86 353.53C387.5 353.53 392.87 345.54 392.87 335.68C392.87 325.82 387.5 317.82 380.86 317.82C357.64 317.82 276.35 317.82 264.74 317.82ZM285.93 340.25C285.93 343 284.43 345.23 282.58 345.23C281.96 345.23 277.05 345.23 276.43 345.23C274.58 345.23 273.08 343 273.08 340.25C273.08 339.33 273.08 332.03 273.08 331.11C273.08 328.36 274.58 326.13 276.43 326.13C277.05 326.13 281.96 326.13 282.58 326.13C284.43 326.13 285.93 328.36 285.93 331.11C285.93 332.94 285.93 338.42 285.93 340.25ZM372.53 340.25C372.53 343 371.02 345.23 369.17 345.23C368.56 345.23 363.64 345.23 363.03 345.23C361.18 345.23 359.68 343 359.68 340.25C359.68 339.33 359.68 332.03 359.68 331.11C359.68 328.36 361.18 326.13 363.03 326.13C363.64 326.13 368.56 326.13 369.17 326.13C371.02 326.13 372.53 328.36 372.53 331.11C372.53 332.94 372.53 338.42 372.53 340.25Z" id="awhT9dJa3"></path><path d="M238.5 363.8C237.1 357.4 236.37 350.76 236.32 344.08C236.32 342.72 236.32 331.85 236.32 330.49C236.37 326.24 236.69 322 237.28 317.82C236.59 317.82 231.11 317.82 230.42 317.82C221.31 317.82 213.89 328.27 213.89 340.81C213.89 353.36 221.31 363.8 230.42 363.8C232.04 363.8 236.88 363.8 238.5 363.8Z" id="a9lDgS4pG"></path><path d="M408.33 317.82C408.91 322 409.23 326.24 409.29 330.49C409.29 331.85 409.29 342.72 409.29 344.08C409.24 350.76 408.51 357.4 407.11 363.8C407.92 363.8 414.38 363.8 415.18 363.8C424.3 363.8 431.71 353.36 431.71 340.81C431.71 328.27 424.3 317.82 415.18 317.82C413.81 317.82 409.01 317.82 408.33 317.82Z" id="d4cBWftGh"></path><path d="M407.11 318.34C407.11 284.87 383.29 257.73 353.91 257.73C347.69 257.73 297.92 257.73 291.7 257.73C262.32 257.73 238.5 284.87 238.5 318.34C238.5 319.7 238.5 330.54 238.5 331.9C238.5 365.38 262.32 392.51 291.7 392.51C297.92 392.51 347.69 392.51 353.91 392.51C383.29 392.51 407.11 365.38 407.11 331.9C407.11 329.19 407.11 321.05 407.11 318.34ZM265.63 356.61C255.4 356.61 247.11 347.16 247.11 335.51C247.11 323.86 255.4 314.41 265.63 314.41C277.12 314.41 369.04 314.41 380.53 314.41C390.76 314.41 399.05 323.86 399.05 335.51C399.05 347.16 390.76 356.61 380.53 356.61C357.55 356.61 277.12 356.61 265.63 356.61Z" id="a1EqeHrYSM"></path><path d="M412.96 281.76C412.96 284.02 412.96 295.33 412.96 315.67L417.3 315.67C417.3 295.33 417.3 284.02 417.3 281.76C422 280.85 425.35 276.96 425.31 272.48C425.31 267.24 420.75 262.99 415.14 262.99C409.52 262.99 404.96 267.24 404.96 272.48C404.91 276.96 408.26 280.85 412.96 281.76Z" id="a10H8mTmLP"></path></defs><g><g><g><use xlink:href="#b1pFDyz2ze" opacity="1" fill="#34af23" fill-opacity="1"></use></g><g><use xlink:href="#gHdsEu8BS" opacity="1" fill="#34af23" fill-opacity="1"></use><g><use xlink:href="#gHdsEu8BS" opacity="1" fill-opacity="0" stroke="#34af23" stroke-width="1" stroke-opacity="1"></use></g></g><g><use xlink:href="#b4fqhMQtx" opacity="1" fill="#34af23" fill-opacity="1"></use><g><use xlink:href="#b4fqhMQtx" opacity="1" fill-opacity="0" stroke="#ffffff" stroke-width="10" stroke-opacity="1"></use></g></g><g><use xlink:href="#awhT9dJa3" opacity="1" fill="#ffffff" fill-opacity="1"></use><g><use xlink:href="#awhT9dJa3" opacity="1" fill-opacity="0" stroke="#000000" stroke-width="1" stroke-opacity="0"></use></g></g><g><use xlink:href="#a9lDgS4pG" opacity="1" fill="#ffffff" fill-opacity="1"></use><g><use xlink:href="#a9lDgS4pG" opacity="1" fill-opacity="0" stroke="#000000" stroke-width="1" stroke-opacity="0"></use></g></g><g><use xlink:href="#d4cBWftGh" opacity="1" fill="#ffffff" fill-opacity="1"></use><g><use xlink:href="#d4cBWftGh" opacity="1" fill-opacity="0" stroke="#000000" stroke-width="1" stroke-opacity="0"></use></g></g><g><use xlink:href="#a1EqeHrYSM" opacity="1" fill="#ffffff" fill-opacity="1"></use><g><use xlink:href="#a1EqeHrYSM" opacity="1" fill-opacity="0" stroke="#000000" stroke-width="1" stroke-opacity="0"></use></g></g><g><use xlink:href="#a10H8mTmLP" opacity="1" fill="#ffffff" fill-opacity="1"></use><g><use xlink:href="#a10H8mTmLP" opacity="1" fill-opacity="0" stroke="#000000" stroke-width="1" stroke-opacity="0"></use></g></g></g></g></svg>